# xmcd
#
# Track frame offsets:
#	150
#	21791
#	39021
#	56399
#	70034
#	87150
#	109345
#	128169
#	146861
#	169629
#	189107
#	204910
#	220623
#	240945
#	259220
#	277858
#	294636
#
# Disc length: 4134 seconds
#
# Revision: 1
# Processed by: cddbd v1.5.2PL0 Copyright (c) Steve Scherf et al.
# Submitted via: audiograbber 1.83.01
#
DISCID=e3102411
DTITLE=Various Artist - CB5080-02
DYEAR=2007
DGENRE=Country
TTITLE0=Last Dollar (Fly Away) - Tim McGraw
TTITLE1=Stand - Rascal Flatts
TTITLE2=How I Feel - Martina McBride
TTITLE3=Spoken Like A Man - Blaine Larsen
TTITLE4=Good Directions - Billy Currington
TTITLE5=Stay - Sugarland
TTITLE6=Startin' With Me - Jake Owen
TTITLE7=I Wonder - Kellie Pickler
TTITLE8=Moments - Emerson Drive
TTITLE9=Famous In A Small Town - Miranda Lambert
TTITLE10=Lucky Man - Mongomery Gentry
TTITLE11=Tough - Craig Morgan
TTITLE12=Missing Missouri - Sara Evans
TTITLE13=Stupid Boy - Keith Urban
TTITLE14=Tennessee - The Wreckers
TTITLE15=Two Pink Lines - Eric Church
TTITLE16=Johnny Cash - Jason Aldean
EXTD=
EXTT0=
EXTT1=
EXTT2=
EXTT3=
EXTT4=
EXTT5=
EXTT6=
EXTT7=
EXTT8=
EXTT9=
EXTT10=
EXTT11=
EXTT12=
EXTT13=
EXTT14=
EXTT15=
EXTT16=
PLAYORDER=
